<svg width="20" height="20" viewBox="0 0 20 20" fill="none" xmlns="http://www.w3.org/2000/svg">
<path d="M8.78936 13.5598C8.6415 13.5598 8.49365 13.5043 8.37959 13.3928C8.14834 13.1664 8.14424 12.7955 8.37041 12.5643L10.5335 10.3531C10.6198 10.2649 10.6198 10.1213 10.5335 10.033L6.09268 5.49356C6.03408 5.4336 5.96494 5.42481 5.929 5.42481C5.89307 5.42481 5.82393 5.43379 5.76533 5.49356L1.32451 10.033C1.23818 10.1213 1.23818 10.2649 1.32451 10.3531C1.32549 10.3541 1.32646 10.3551 1.32744 10.3561L1.82979 10.8768C2.05439 11.1096 2.04775 11.4807 1.81475 11.7053C1.58174 11.9299 1.21084 11.9232 0.98623 11.6902L0.485254 11.1709C0.228613 10.9078 0.0874023 10.5606 0.0874023 10.193C0.0874023 9.8254 0.229199 9.47676 0.486816 9.21348L4.92803 4.67364C5.19365 4.40196 5.54932 4.25235 5.92939 4.25235C6.30947 4.25235 6.66494 4.40196 6.93076 4.67344L11.3716 9.2129C11.6292 9.47618 11.771 9.82403 11.771 10.1924C11.771 10.5607 11.6292 10.9086 11.3716 11.1719L9.2083 13.383C9.09346 13.5004 8.9415 13.5592 8.78936 13.5592V13.5598Z" fill="#101F3E"/>
<path d="M3.3361 13.2986C2.95875 13.2986 2.60563 13.1512 2.34 12.882L2.1736 12.7135C1.94625 12.4832 1.9486 12.1121 2.17907 11.8848C2.40934 11.6574 2.78043 11.6598 3.00778 11.8902L3.17418 12.0588C3.23356 12.1189 3.30367 12.1266 3.33981 12.1267C3.37614 12.1264 3.44586 12.1164 3.50387 12.0547L6.25895 9.12636C6.48063 8.89061 6.85153 8.87948 7.08727 9.10116C7.32301 9.32284 7.33434 9.69374 7.11246 9.92948L4.35719 12.8578C4.0941 13.1375 3.73766 13.2939 3.35387 13.2986C3.34801 13.2986 3.34235 13.2986 3.33649 13.2986H3.3361Z" fill="#101F3E"/>
<path d="M4.58301 14.9082C4.43633 14.9082 4.28946 14.8535 4.17559 14.7434C3.94298 14.5184 3.93692 14.1475 4.16192 13.9148L6.65235 11.3406C6.87735 11.108 7.24825 11.102 7.48087 11.327C7.71348 11.552 7.71954 11.9229 7.49454 12.1555L5.00411 14.7297C4.88926 14.8484 4.73614 14.9082 4.58301 14.9082Z" fill="#101F3E"/>
<path d="M5.92483 16.0912C5.78068 16.0912 5.63635 16.0383 5.52307 15.9318C5.28752 15.71 5.27639 15.3391 5.49826 15.1035L6.94924 13.5633C7.17111 13.3277 7.54201 13.3166 7.77756 13.5385C8.01311 13.7604 8.02424 14.1313 7.80236 14.3668L6.35139 15.907C6.23615 16.0295 6.08068 16.0912 5.92483 16.0912Z" fill="#101F3E"/>
<path d="M14.0776 15.876C13.6975 15.876 13.3419 15.7264 13.0763 15.4547L11.0497 13.3832C10.8233 13.152 10.8274 12.7809 11.0589 12.5547C11.2901 12.3283 11.6612 12.3324 11.8874 12.5637L13.914 14.6352C13.9725 14.6951 14.0417 14.7041 14.0776 14.7041C14.1136 14.7041 14.1827 14.6951 14.2413 14.6354L18.6753 10.1029C18.7616 10.0146 18.7616 9.87109 18.6753 9.78281L14.2415 5.25039C14.1829 5.19043 14.1138 5.18164 14.0778 5.18164C14.0419 5.18164 13.9727 5.19063 13.9141 5.25039L11.9296 7.2791C11.7032 7.51055 11.3323 7.51445 11.1011 7.28828C10.8698 7.06191 10.8657 6.69102 11.0919 6.45977L13.0765 4.43105C13.3421 4.15937 13.6977 4.00977 14.0778 4.00977C14.4579 4.00977 14.8134 4.15937 15.0792 4.43105L19.513 8.96348C19.7706 9.22676 19.9124 9.57461 19.9124 9.94297C19.9124 10.3113 19.7706 10.6592 19.513 10.9225L15.079 15.4549C14.8134 15.7266 14.4577 15.8762 14.0776 15.8762V15.876Z" fill="#101F3E"/>
</svg>
