<svg width="16" height="16" viewBox="0 0 16 16" fill="none" xmlns="http://www.w3.org/2000/svg">
<path d="M10.3333 7.66667H9.66665L8.66665 9.66667L7.33331 5.66667L6.33331 7.66667H5.66665M7.99541 3.42388C6.66251 1.8656 4.43981 1.44643 2.76978 2.87334C1.09974 4.30026 0.864625 6.68598 2.17611 8.3736C3.16671 9.64829 5.98084 12.2073 7.29865 13.3833C7.5409 13.5994 7.66203 13.7075 7.80387 13.7501C7.927 13.787 8.06383 13.787 8.18696 13.7501C8.3288 13.7075 8.44992 13.5994 8.69218 13.3833C10.01 12.2073 12.8241 9.64829 13.8147 8.3736C15.1262 6.68598 14.9198 4.28525 13.2211 2.87334C11.5223 1.46144 9.32832 1.8656 7.99541 3.42388Z" stroke="#101F3E" stroke-width="1.3" stroke-linecap="round" stroke-linejoin="round"/>
</svg>
