<svg width="16" height="16" viewBox="0 0 16 16" fill="none" xmlns="http://www.w3.org/2000/svg">
<path d="M12.6667 1.33334L14.6667 3.33334L12.6667 5.33334M14.6667 3.33334L10.6667 3.33334M8.33333 2.00001H5.2C4.07989 2.00001 3.51984 2.00001 3.09202 2.218C2.71569 2.40974 2.40973 2.7157 2.21799 3.09203C2 3.51985 2 4.0799 2 5.20001V10.8C2 11.9201 2 12.4802 2.21799 12.908C2.40973 13.2843 2.71569 13.5903 3.09202 13.782C3.51984 14 4.07989 14 5.2 14H11.3333C11.9533 14 12.2633 14 12.5176 13.9319C13.2078 13.7469 13.7469 13.2078 13.9319 12.5176C14 12.2633 14 11.9533 14 11.3333M7 5.66668C7 6.40306 6.40305 7.00001 5.66667 7.00001C4.93029 7.00001 4.33333 6.40306 4.33333 5.66668C4.33333 4.9303 4.93029 4.33334 5.66667 4.33334C6.40305 4.33334 7 4.9303 7 5.66668ZM9.99336 7.94544L4.3541 13.072C4.03691 13.3604 3.87831 13.5046 3.86429 13.6295C3.85213 13.7377 3.89364 13.8451 3.97546 13.917C4.06985 14 4.28419 14 4.71286 14H10.9707C11.9301 14 12.4098 14 12.7866 13.8388C13.2596 13.6365 13.6365 13.2596 13.8388 12.7866C14 12.4098 14 11.9301 14 10.9707C14 10.6478 14 10.4864 13.9647 10.3361C13.9204 10.1472 13.8353 9.97025 13.7155 9.81761C13.6202 9.69614 13.4941 9.59531 13.242 9.39365L11.3772 7.90178C11.1249 7.69995 10.9988 7.59903 10.8599 7.56342C10.7374 7.53203 10.6086 7.53609 10.4884 7.57514C10.352 7.61944 10.2324 7.72811 9.99336 7.94544Z" stroke="#101F3E" stroke-width="1.3" stroke-linecap="round" stroke-linejoin="round"/>
</svg>
