<svg width="16" height="16" viewBox="0 0 16 16" fill="none" xmlns="http://www.w3.org/2000/svg">
<path d="M8 11.6666H8.00667M4.8 14.6666H11.2C11.9467 14.6666 12.3201 14.6666 12.6053 14.5213C12.8562 14.3935 13.0602 14.1895 13.188 13.9386C13.3333 13.6534 13.3333 13.28 13.3333 12.5333V3.46665C13.3333 2.71991 13.3333 2.34654 13.188 2.06133C13.0602 1.81044 12.8562 1.60647 12.6053 1.47864C12.3201 1.33331 11.9467 1.33331 11.2 1.33331H4.8C4.05327 1.33331 3.6799 1.33331 3.39468 1.47864C3.1438 1.60647 2.93983 1.81044 2.812 2.06133C2.66667 2.34654 2.66667 2.71991 2.66667 3.46665V12.5333C2.66667 13.28 2.66667 13.6534 2.812 13.9386C2.93983 14.1895 3.1438 14.3935 3.39468 14.5213C3.6799 14.6666 4.05327 14.6666 4.8 14.6666ZM8.33334 11.6666C8.33334 11.8507 8.1841 12 8 12C7.81591 12 7.66667 11.8507 7.66667 11.6666C7.66667 11.4826 7.81591 11.3333 8 11.3333C8.1841 11.3333 8.33334 11.4826 8.33334 11.6666Z" stroke="#101F3E" stroke-width="1.3" stroke-linecap="round" stroke-linejoin="round"/>
</svg>
